<svg width="800" height="800" viewBox="0 0 800 800" fill="none" xmlns="http://www.w3.org/2000/svg">
<path d="M240 376C226.745 376 216 386.746 216 400C216 413.254 226.745 424 240 424V376ZM400 424C413.254 424 424 413.254 424 400C424 386.746 413.254 376 400 376V424ZM400 376C386.746 376 376 386.746 376 400C376 413.254 386.746 424 400 424V376ZM560 424C573.254 424 584 413.254 584 400C584 386.746 573.254 376 560 376V424ZM424 400C424 386.746 413.254 376 400 376C386.746 376 376 386.746 376 400H424ZM376 560C376 573.254 386.746 584 400 584C413.254 584 424 573.254 424 560H376ZM376 400C376 413.254 386.746 424 400 424C413.254 424 424 413.254 424 400H376ZM424 240C424 226.745 413.254 216 400 216C386.746 216 376 226.745 376 240H424ZM240 424H400V376H240V424ZM400 424H560V376H400V424ZM400 400H376V400.032C376 400.035 376 400.07 376 400.07C376 400.067 376 400.074 376 400.07C376 400.07 376 400.106 376 400.109C376 400.106 376 400.112 376 400.109C376 400.112 376 400.138 376 400.141C376 400.144 376 400.173 376 400.176C376 400.179 376 400.205 376 400.208C376 400.211 376 400.24 376 400.246C376 400.25 376 400.278 376 400.285C376 400.288 376 400.323 376 400.326C376 400.32 376 400.333 376 400.326C376 400.333 376 400.352 376 400.358C376 400.352 376 400.365 376 400.358C376 400.365 376 400.387 376 400.39C376 400.384 376 400.397 376 400.39C376 400.397 376 400.419 376 400.426C376 400.419 376 400.432 376 400.426C376 400.432 376 400.458 376 400.464C376 400.458 376 400.47 376 400.464C376 400.47 376 400.496 376 400.502C376 400.493 376 400.509 376 400.502C376 400.509 376 400.538 376 400.544C376 400.538 376 400.55 376 400.544C376 400.55 376 400.579 376 400.589C376 400.579 376 400.595 376 400.589C376 400.595 376 400.627 376 400.634C376 400.627 376 400.64 376 400.634C376 400.643 376 400.672 376 400.682C376 400.672 376 400.691 376 400.682C376 400.688 376 400.723 376 400.733C376 400.723 376 400.739 376 400.733C376 400.742 376 400.774 376 400.784C376 400.774 376 400.794 376 400.784C376 400.794 376 400.832 376 400.842C376 400.832 376 400.851 376 400.842C376 400.851 376 400.89 376 400.899C376 400.89 376 400.909 376 400.899C376 400.909 376 400.947 376 400.96C376 400.95 376 400.97 376 400.96C376 400.973 376 401.011 376 401.021C376 401.034 376 401.043 376 401.056C376 401.066 376 401.075 376 401.088C376 401.101 376 401.11 376 401.123C376 401.133 376 401.146 376 401.155C376 401.168 376 401.181 376 401.194C376 401.203 376 401.216 376 401.229C376 401.242 376 401.251 376 401.264C376 401.277 376 401.29 376 401.302C376 401.315 376 401.328 376 401.341C376 401.354 376 401.366 376 401.379C376 401.392 376 401.408 376 401.421C376 401.434 376 401.446 376 401.459C376 401.475 376 401.488 376 401.501C376 401.517 376 401.53 376 401.542C376 401.558 376 401.571 376 401.587C376 401.6 376 401.616 376 401.629C376 401.645 376 401.661 376 401.674C376 401.69 376 401.706 376 401.722C376 401.734 376 401.75 376 401.766C376 401.782 376 401.798 376 401.814C376 401.827 376 401.843 376 401.859C376 401.875 376 401.894 376 401.91C376 401.926 376 401.942 376 401.958C376 401.974 376 401.99 376 402.01C376 402.026 376 402.042 376 402.061C376 402.077 376 402.096 376 402.112C376 402.128 376 402.147 376 402.163C376 402.182 376 402.202 376 402.218C376 402.237 376 402.256 376 402.272C376 402.291 376 402.31 376 402.33C376 402.346 376 402.365 376 402.384C376 402.403 376 402.422 376 402.442C376 402.461 376 402.48 376 402.499C376 402.518 376 402.541 376 402.56C376 402.579 376 402.598 376 402.618C376 402.64 376 402.659 376 402.678C376 402.701 376 402.72 376 402.742C376 402.762 376 402.784 376 402.803C376 402.826 376 402.848 376 402.867C376 402.89 376 402.912 376 402.934C376 402.954 376 402.976 376 402.998C376 403.021 376 403.043 376 403.066C376 403.088 376 403.11 376 403.133C376 403.155 376 403.178 376 403.2C376 403.226 376 403.248 376 403.27C376 403.296 376 403.318 376 403.341C376 403.366 376 403.389 376 403.414C376 403.437 376 403.462 376 403.485C376 403.51 376 403.536 376 403.558C376 403.584 376 403.61 376 403.635C376 403.661 376 403.683 376 403.709C376 403.734 376 403.76 376 403.786C376 403.811 376 403.84 376 403.866C376 403.891 376 403.917 376 403.942C376 403.971 376 403.997 376 404.022C376 404.051 376 404.077 376 404.106C376 404.131 376 404.16 376 404.186C376 404.214 376 404.243 376 404.269C376 404.298 376 404.326 376 404.355C376 404.381 376 404.41 376 404.438C376 404.467 376 404.496 376 404.525C376 404.554 376 404.582 376 404.614C376 404.643 376 404.672 376 404.701C376 404.733 376 404.762 376 404.79C376 404.822 376 404.851 376 404.883C376 404.912 376 404.944 376 404.976C376 405.005 376 405.037 376 405.069C376 405.101 376 405.13 376 405.162C376 405.194 376 405.226 376 405.258C376 405.29 376 405.322 376 405.354C376 405.389 376 405.421 376 405.453C376 405.485 376 405.52 376 405.552C376 405.584 376 405.619 376 405.651C376 405.686 376 405.718 376 405.754C376 405.789 376 405.821 376 405.856C376 405.891 376 405.926 376 405.962C376 405.997 376 406.032 376 406.067C376 406.102 376 406.138 376 406.173C376 406.208 376 406.243 376 406.278C376 406.317 376 406.352 376 406.39C376 406.426 376 406.461 376 406.499C376 406.534 376 406.573 376 406.611C376 406.646 376 406.685 376 406.723C376 406.762 376 406.8 376 406.838C376 406.877 376 406.915 376 406.954C376 406.992 376 407.03 376 407.069C376 407.107 376 407.146 376 407.187C376 407.226 376 407.267 376 407.306C376 407.347 376 407.386 376 407.427C376 407.466 376 407.507 376 407.549C376 407.587 376 407.629 376 407.67C376 407.712 376 407.754 376 407.795C376 407.837 376 407.878 376 407.92C376 407.962 376 408.006 376 408.048C376 408.09 376 408.134 376 408.176C376 408.221 376 408.262 376 408.307C376 408.349 376 408.394 376 408.438C376 408.48 376 408.525 376 408.57C376 408.614 376 408.659 376 408.704C376 408.749 376 408.794 376 408.838C376 408.883 376 408.931 376 408.976C376 409.021 376 409.069 376 409.114C376 409.162 376 409.206 376 409.254C376 409.299 376 409.347 376 409.395C376 409.443 376 409.488 376 409.536C376 409.584 376 409.632 376 409.68C376 409.728 376 409.776 376 409.827C376 409.875 376 409.923 376 409.971C376 410.022 376 410.07 376 410.122C376 410.17 376 410.221 376 410.269C376 410.32 376 410.371 376 410.422C376 410.47 376 410.522 376 410.573C376 410.624 376 410.675 376 410.726C376 410.778 376 410.832 376 410.883C376 410.934 376 410.989 376 411.04C376 411.091 376 411.146 376 411.2C376 411.251 376 411.306 376 411.36C376 411.411 376 411.466 376 411.52C376 411.574 376 411.629 376 411.683C376 411.738 376 411.792 376 411.846C376 411.904 376 411.958 376 412.013C376 412.07 376 412.125 376 412.182C376 412.237 376 412.294 376 412.349C376 412.406 376 412.464 376 412.522C376 412.579 376 412.637 376 412.694C376 412.752 376 412.81 376 412.867C376 412.925 376 412.982 376 413.043C376 413.101 376 413.162 376 413.219C376 413.28 376 413.338 376 413.398C376 413.459 376 413.517 376 413.578C376 413.638 376 413.699 376 413.76C376 413.821 376 413.882 376 413.946C376 414.006 376 414.067 376 414.128C376 414.192 376 414.253 376 414.317C376 414.378 376 414.442 376 414.506C376 414.566 376 414.63 376 414.694C376 414.758 376 414.822 376 414.886C376 414.95 376 415.014 376 415.078C376 415.142 376 415.21 376 415.274C376 415.341 376 415.405 376 415.472C376 415.536 376 415.603 376 415.67C376 415.734 376 415.802 376 415.869C376 415.936 376 416.003 376 416.07C376 416.138 376 416.205 376 416.275C376 416.342 376 416.41 376 416.48C376 416.547 376 416.618 376 416.685C376 416.755 376 416.826 376 416.896C376 416.963 376 417.034 376 417.104C376 417.174 376 417.245 376 417.318C376 417.389 376 417.459 376 417.53C376 417.603 376 417.674 376 417.747C376 417.818 376 417.891 376 417.965C376 418.035 376 418.109 376 418.182C376 418.256 376 418.33 376 418.403C376 418.477 376 418.55 376 418.627C376 418.701 376 418.774 376 418.851C376 418.925 376 419.002 376 419.078C376 419.152 376 419.229 376 419.306C376 419.382 376 419.459 376 419.536C376 419.613 376 419.69 376 419.766C376 419.843 376 419.923 376 420C376 420.077 376 420.157 376 420.237C376 420.314 376 420.394 376 420.474C376 420.55 376 420.63 376 420.71C376 420.79 376 420.87 376 420.954C376 421.034 376 421.114 376 421.194C376 421.277 376 421.357 376 421.44C376 421.52 376 421.603 376 421.686C376 421.77 376 421.85 376 421.933C376 422.016 376 422.099 376 422.186C376 422.269 376 422.352 376 422.435C376 422.522 376 422.605 376 422.691C376 422.774 376 422.861 376 422.947C376 423.034 376 423.117 376 423.203C376 423.29 376 423.376 376 423.462C376 423.552 376 423.638 376 423.725C376 423.814 376 423.901 376 423.99C376 424.077 376 424.166 376 424.256C376 424.342 376 424.432 376 424.522C376 424.611 376 424.701 376 424.79C376 424.883 376 424.973 376 425.062C376 425.155 376 425.245 376 425.338C376 425.427 376 425.52 376 425.613C376 425.706 376 425.795 376 425.888C376 425.981 376 426.077 376 426.17C376 426.262 376 426.355 376 426.451C376 426.544 376 426.64 376 426.733C376 426.829 376 426.925 376 427.018C376 427.114 376 427.21 376 427.306C376 427.402 376 427.498 376 427.597C376 427.693 376 427.789 376 427.888C376 427.984 376 428.083 376 428.182C376 428.278 376 428.378 376 428.477C376 428.576 376 428.675 376 428.774C376 428.874 376 428.973 376 429.075C376 429.174 376 429.274 376 429.376C376 429.475 376 429.578 376 429.68C376 429.782 376 429.885 376 429.987C376 430.086 376 430.192 376 430.294C376 430.397 376 430.499 376 430.605C376 430.707 376 430.813 376 430.915C376 431.021 376 431.126 376 431.232C376 431.334 376 431.44 376 431.546C376 431.654 376 431.76 376 431.866C376 431.971 376 432.08 376 432.186C376 432.294 376 432.4 376 432.509C376 432.618 376 432.726 376 432.835C376 432.944 376 433.053 376 433.162C376 433.27 376 433.382 376 433.491C376 433.6 376 433.712 376 433.824C376 433.933 376 434.045 376 434.157C376 434.269 376 434.381 376 434.493C376 434.605 376 434.717 376 434.832C376 434.944 376 435.056 376 435.171C376 435.286 376 435.398 376 435.514C376 435.629 376 435.744 376 435.859C376 435.974 376 436.09 376 436.205C376 436.32 376 436.438 376 436.554C376 436.672 376 436.787 376 436.906C376 437.024 376 437.142 376 437.261C376 437.379 376 437.498 376 437.616C376 437.734 376 437.853 376 437.974C376 438.093 376 438.214 376 438.336C376 438.454 376 438.576 376 438.698C376 438.819 376 438.941 376 439.062C376 439.184 376 439.306 376 439.43C376 439.552 376 439.677 376 439.798C376 439.923 376 440.048 376 440.173C376 440.294 376 440.419 376 440.547C376 440.672 376 440.797 376 440.922C376 441.05 376 441.174 376 441.302C376 441.427 376 441.555 376 441.683C376 441.811 376 441.939 376 442.067C376 442.195 376 442.323 376 442.451C376 442.582 376 442.71 376 442.842C376 442.97 376 443.101 376 443.232C376 443.36 376 443.491 376 443.622C376 443.757 376 443.888 376 444.019C376 444.15 376 444.285 376 444.416C376 444.55 376 444.685 376 444.816C376 444.95 376 445.085 376 445.219C376 445.354 376 445.488 376 445.626C376 445.76 376 445.894 376 446.032C376 446.17 376 446.304 376 446.442C376 446.579 376 446.717 376 446.854C376 446.992 376 447.13 376 447.267C376 447.408 376 447.546 376 447.686C376 447.824 376 447.965 376 448.106C376 448.246 376 448.387 376 448.528C376 448.669 376 448.81 376 448.95C376 449.094 376 449.235 376 449.379C376 449.52 376 449.664 376 449.808C376 449.952 376 450.096 376 450.24C376 450.384 376 450.528 376 450.675C376 450.819 376 450.966 376 451.11C376 451.258 376 451.405 376 451.549C376 451.696 376 451.843 376 451.994C376 452.141 376 452.288 376 452.435C376 452.586 376 452.733 376 452.883C376 453.034 376 453.184 376 453.334C376 453.482 376 453.635 376 453.786C376 453.936 376 454.086 376 454.24C376 454.39 376 454.544 376 454.698C376 454.848 376 455.002 376 455.155C376 455.309 376 455.462 376 455.619C376 455.773 376 455.926 376 456.083C376 456.24 376 456.394 376 456.55C376 456.707 376 456.864 376 457.021C376 457.178 376 457.334 376 457.494C376 457.651 376 457.808 376 457.968C376 458.128 376 458.285 376 458.445C376 458.605 376 458.765 376 458.925C376 459.088 376 459.248 376 459.408C376 459.571 376 459.731 376 459.894C376 460.058 376 460.221 376 460.384C376 460.547 376 460.71 376 460.874C376 461.037 376 461.203 376 461.366C376 461.533 376 461.699 376 461.862C376 462.029 376 462.195 376 462.362C376 462.528 376 462.698 376 462.864C376 463.03 376 463.2 376 463.37C376 463.536 376 463.706 376 463.875C376 464.045 376 464.214 376 464.384C376 464.557 376 464.726 376 464.896C376 465.069 376 465.242 376 465.411C376 465.584 376 465.757 376 465.93C376 466.102 376 466.278 376 466.451C376 466.624 376 466.8 376 466.973C376 467.149 376 467.325 376 467.501C376 467.677 376 467.853 376 468.029C376 468.205 376 468.384 376 468.56C376 468.739 376 468.915 376 469.094C376 469.274 376 469.453 376 469.632C376 469.811 376 469.99 376 470.173C376 470.352 376 470.531 376 470.714C376 470.896 376 471.078 376 471.258C376 471.44 376 471.626 376 471.808C376 471.99 376 472.173 376 472.358C376 472.541 376 472.726 376 472.912C376 473.098 376 473.283 376 473.469C376 473.654 376 473.84 376 474.029C376 474.214 376 474.403 376 474.589C376 474.778 376 474.966 376 475.155C376 475.344 376 475.533 376 475.722C376 475.914 376 476.102 376 476.294C376 476.483 376 476.675 376 476.867C376 477.059 376 477.251 376 477.443C376 477.635 376 477.83 376 478.022C376 478.218 376 478.41 376 478.605C376 478.8 376 478.995 376 479.19C376 479.386 376 479.584 376 479.779C376 479.974 376 480.173 376 480.371C376 480.566 376 480.765 376 480.963C376 481.162 376 481.36 376 481.562C376 481.76 376 481.958 376 482.16C376 482.362 376 482.56 376 482.762C376 482.963 376 483.165 376 483.37C376 483.571 376 483.773 376 483.978C376 484.179 376 484.384 376 484.589C376 484.794 376 484.998 376 485.203C376 485.408 376 485.613 376 485.821C376 486.026 376 486.234 376 486.442C376 486.646 376 486.854 376 487.066C376 487.274 376 487.482 376 487.69C376 487.901 376 488.109 376 488.32C376 488.531 376 488.742 376 488.954C376 489.165 376 489.376 376 489.587C376 489.798 376 490.013 376 490.227C376 490.438 376 490.653 376 490.867C376 491.082 376 491.296 376 491.51C376 491.728 376 491.942 376 492.16C376 492.374 376 492.592 376 492.81C376 493.027 376 493.245 376 493.462C376 493.683 376 493.901 376 494.122C376 494.339 376 494.56 376 494.781C376 495.002 376 495.222 376 495.443C376 495.664 376 495.885 376 496.109C376 496.33 376 496.554 376 496.778C376 497.002 376 497.226 376 497.45C376 497.674 376 497.898 376 498.125C376 498.349 376 498.576 376 498.803C376 499.03 376 499.258 376 499.485C376 499.712 376 499.939 376 500.17C376 500.397 376 500.627 376 500.858C376 501.085 376 501.315 376 501.549C376 501.779 376 502.01 376 502.24C376 502.474 376 502.704 376 502.938C376 503.171 376 503.405 376 503.638C376 503.872 376 504.106 376 504.342C376 504.576 376 504.813 376 505.05C376 505.283 376 505.52 376 505.757C376 505.997 376 506.234 376 506.47C376 506.71 376 506.947 376 507.187C376 507.427 376 507.667 376 507.907C376 508.147 376 508.387 376 508.63C376 508.87 376 509.114 376 509.357C376 509.597 376 509.84 376 510.083C376 510.326 376 510.573 376 510.816C376 511.062 376 511.306 376 511.552C376 511.798 376 512.045 376 512.291C376 512.538 376 512.784 376 513.034C376 513.28 376 513.53 376 513.779C376 514.026 376 514.275 376 514.528C376 514.778 376 515.027 376 515.28C376 515.53 376 515.782 376 516.032C376 516.285 376 516.538 376 516.79C376 517.046 376 517.299 376 517.555C376 517.808 376 518.064 376 518.32C376 518.573 376 518.829 376 519.088C376 519.344 376 519.6 376 519.859C376 520.115 376 520.374 376 520.634C376 520.893 376 521.152 376 521.411C376 521.67 376 521.933 376 522.192C376 522.454 376 522.717 376 522.979C376 523.242 376 523.504 376 523.766C376 524.029 376 524.294 376 524.557C376 524.822 376 525.088 376 525.354C376 525.619 376 525.885 376 526.15C376 526.419 376 526.685 376 526.954C376 527.222 376 527.491 376 527.76C376 528.029 376 528.298 376 528.566C376 528.838 376 529.107 376 529.379C376 529.651 376 529.923 376 530.195C376 530.467 376 530.739 376 531.014C376 531.286 376 531.562 376 531.837C376 532.112 376 532.387 376 532.662C376 532.938 376 533.213 376 533.491C376 533.766 376 534.045 376 534.323C376 534.602 376 534.88 376 535.158C376 535.44 376 535.718 376 536C376 536.278 376 536.56 376 536.842C376 537.123 376 537.405 376 537.69C376 537.971 376 538.253 376 538.538C376 538.822 376 539.107 376 539.392C376 539.677 376 539.962 376 540.25C376 540.534 376 540.822 376 541.11C376 541.395 376 541.683 376 541.974C376 542.262 376 542.55 376 542.842C376 543.13 376 543.421 376 543.712C376 544.003 376 544.294 376 544.586C376 544.877 376 545.171 376 545.462C376 545.757 376 546.051 376 546.346C376 546.64 376 546.934 376 547.232C376 547.526 376 547.824 376 548.118C376 548.416 376 548.714 376 549.011C376 549.309 376 549.61 376 549.907C376 550.208 376 550.506 376 550.806C376 551.107 376 551.408 376 551.709C376 552.013 376 552.314 376 552.618C376 552.918 376 553.222 376 553.526C376 553.83 376 554.134 376 554.442C376 554.746 376 555.053 376 555.357C376 555.664 376 555.971 376 556.278C376 556.586 376 556.896 376 557.203C376 557.514 376 557.821 376 558.131C376 558.442 376 558.752 376 559.066C376 559.376 376 559.686 376 560H424C424 559.686 424 559.376 424 559.066C424 558.752 424 558.442 424 558.131C424 557.821 424 557.514 424 557.203C424 556.896 424 556.586 424 556.278C424 555.971 424 555.664 424 555.357C424 555.053 424 554.746 424 554.442C424 554.134 424 553.83 424 553.526C424 553.222 424 552.918 424 552.618C424 552.314 424 552.013 424 551.709C424 551.408 424 551.107 424 550.806C424 550.506 424 550.208 424 549.907C424 549.61 424 549.309 424 549.011C424 548.714 424 548.416 424 548.118C424 547.824 424 547.526 424 547.232C424 546.934 424 546.64 424 546.346C424 546.051 424 545.757 424 545.462C424 545.171 424 544.877 424 544.586C424 544.294 424 544.003 424 543.712C424 543.421 424 543.13 424 542.842C424 542.55 424 542.262 424 541.974C424 541.683 424 541.395 424 541.11C424 540.822 424 540.534 424 540.25C424 539.962 424 539.677 424 539.392C424 539.107 424 538.822 424 538.538C424 538.253 424 537.971 424 537.69C424 537.405 424 537.123 424 536.842C424 536.56 424 536.278 424 536C424 535.718 424 535.44 424 535.158C424 534.88 424 534.602 424 534.323C424 534.045 424 533.766 424 533.491C424 533.213 424 532.938 424 532.662C424 532.387 424 532.112 424 531.837C424 531.562 424 531.286 424 531.014C424 530.739 424 530.467 424 530.195C424 529.923 424 529.651 424 529.379C424 529.107 424 528.838 424 528.566C424 528.298 424 528.029 424 527.76C424 527.491 424 527.222 424 526.954C424 526.685 424 526.419 424 526.15C424 525.885 424 525.619 424 525.354C424 525.088 424 524.822 424 524.557C424 524.294 424 524.029 424 523.766C424 523.504 424 523.242 424 522.979C424 522.717 424 522.454 424 522.192C424 521.933 424 521.67 424 521.411C424 521.152 424 520.893 424 520.634C424 520.374 424 520.115 424 519.859C424 519.6 424 519.344 424 519.088C424 518.829 424 518.573 424 518.32C424 518.064 424 517.808 424 517.555C424 517.299 424 517.046 424 516.79C424 516.538 424 516.285 424 516.032C424 515.782 424 515.53 424 515.28C424 515.027 424 514.778 424 514.528C424 514.275 424 514.026 424 513.779C424 513.53 424 513.28 424 513.034C424 512.784 424 512.538 424 512.291C424 512.045 424 511.798 424 511.552C424 511.306 424 511.062 424 510.816C424 510.573 424 510.326 424 510.083C424 509.84 424 509.597 424 509.357C424 509.114 424 508.87 424 508.63C424 508.387 424 508.147 424 507.907C424 507.667 424 507.427 424 507.187C424 506.947 424 506.71 424 506.47C424 506.234 424 505.997 424 505.757C424 505.52 424 505.283 424 505.05C424 504.813 424 504.576 424 504.342C424 504.106 424 503.872 424 503.638C424 503.405 424 503.171 424 502.938C424 502.704 424 502.474 424 502.24C424 502.01 424 501.779 424 501.549C424 501.315 424 501.085 424 500.858C424 500.627 424 500.397 424 500.17C424 499.939 424 499.712 424 499.485C424 499.258 424 499.03 424 498.803C424 498.576 424 498.349 424 498.125C424 497.898 424 497.674 424 497.45C424 497.226 424 497.002 424 496.778C424 496.554 424 496.33 424 496.109C424 495.885 424 495.664 424 495.443C424 495.222 424 495.002 424 494.781C424 494.56 424 494.339 424 494.122C424 493.901 424 493.683 424 493.462C424 493.245 424 493.027 424 492.81C424 492.592 424 492.374 424 492.16C424 491.942 424 491.728 424 491.51C424 491.296 424 491.082 424 490.867C424 490.653 424 490.438 424 490.227C424 490.013 424 489.798 424 489.587C424 489.376 424 489.165 424 488.954C424 488.742 424 488.531 424 488.32C424 488.109 424 487.901 424 487.69C424 487.482 424 487.274 424 487.066C424 486.854 424 486.646 424 486.442C424 486.234 424 486.026 424 485.821C424 485.613 424 485.408 424 485.203C424 484.998 424 484.794 424 484.589C424 484.384 424 484.179 424 483.978C424 483.773 424 483.571 424 483.37C424 483.165 424 482.963 424 482.762C424 482.56 424 482.362 424 482.16C424 481.958 424 481.76 424 481.562C424 481.36 424 481.162 424 480.963C424 480.765 424 480.566 424 480.371C424 480.173 424 479.974 424 479.779C424 479.584 424 479.386 424 479.19C424 478.995 424 478.8 424 478.605C424 478.41 424 478.218 424 478.022C424 477.83 424 477.635 424 477.443C424 477.251 424 477.059 424 476.867C424 476.675 424 476.483 424 476.294C424 476.102 424 475.914 424 475.722C424 475.533 424 475.344 424 475.155C424 474.966 424 474.778 424 474.589C424 474.403 424 474.214 424 474.029C424 473.84 424 473.654 424 473.469C424 473.283 424 473.098 424 472.912C424 472.726 424 472.541 424 472.358C424 472.173 424 471.99 424 471.808C424 471.626 424 471.44 424 471.258C424 471.078 424 470.896 424 470.714C424 470.531 424 470.352 424 470.173C424 469.99 424 469.811 424 469.632C424 469.453 424 469.274 424 469.094C424 468.915 424 468.739 424 468.56C424 468.384 424 468.205 424 468.029C424 467.853 424 467.677 424 467.501C424 467.325 424 467.149 424 466.973C424 466.8 424 466.624 424 466.451C424 466.278 424 466.102 424 465.93C424 465.757 424 465.584 424 465.411C424 465.242 424 465.069 424 464.896C424 464.726 424 464.557 424 464.384C424 464.214 424 464.045 424 463.875C424 463.706 424 463.536 424 463.37C424 463.2 424 463.03 424 462.864C424 462.698 424 462.528 424 462.362C424 462.195 424 462.029 424 461.862C424 461.699 424 461.533 424 461.366C424 461.203 424 461.037 424 460.874C424 460.71 424 460.547 424 460.384C424 460.221 424 460.058 424 459.894C424 459.731 424 459.571 424 459.408C424 459.248 424 459.088 424 458.925C424 458.765 424 458.605 424 458.445C424 458.285 424 458.128 424 457.968C424 457.808 424 457.651 424 457.494C424 457.334 424 457.178 424 457.021C424 456.864 424 456.707 424 456.55C424 456.394 424 456.24 424 456.083C424 455.926 424 455.773 424 455.619C424 455.462 424 455.309 424 455.155C424 455.002 424 454.848 424 454.698C424 454.544 424 454.39 424 454.24C424 454.086 424 453.936 424 453.786C424 453.635 424 453.482 424 453.334C424 453.184 424 453.034 424 452.883C424 452.733 424 452.586 424 452.435C424 452.288 424 452.141 424 451.994C424 451.843 424 451.696 424 451.549C424 451.405 424 451.258 424 451.11C424 450.966 424 450.819 424 450.675C424 450.528 424 450.384 424 450.24C424 450.096 424 449.952 424 449.808C424 449.664 424 449.52 424 449.379C424 449.235 424 449.094 424 448.95C424 448.81 424 448.669 424 448.528C424 448.387 424 448.246 424 448.106C424 447.965 424 447.824 424 447.686C424 447.546 424 447.408 424 447.267C424 447.13 424 446.992 424 446.854C424 446.717 424 446.579 424 446.442C424 446.304 424 446.17 424 446.032C424 445.894 424 445.76 424 445.626C424 445.488 424 445.354 424 445.219C424 445.085 424 444.95 424 444.816C424 444.685 424 444.55 424 444.416C424 444.285 424 444.15 424 444.019C424 443.888 424 443.757 424 443.622C424 443.491 424 443.36 424 443.232C424 443.101 424 442.97 424 442.842C424 442.71 424 442.582 424 442.451C424 442.323 424 442.195 424 442.067C424 441.939 424 441.811 424 441.683C424 441.555 424 441.427 424 441.302C424 441.174 424 441.05 424 440.922C424 440.797 424 440.672 424 440.547C424 440.419 424 440.294 424 440.173C424 440.048 424 439.923 424 439.798C424 439.677 424 439.552 424 439.43C424 439.306 424 439.184 424 439.062C424 438.941 424 438.819 424 438.698C424 438.576 424 438.454 424 438.336C424 438.214 424 438.093 424 437.974C424 437.853 424 437.734 424 437.616C424 437.498 424 437.379 424 437.261C424 437.142 424 437.024 424 436.906C424 436.787 424 436.672 424 436.554C424 436.438 424 436.32 424 436.205C424 436.09 424 435.974 424 435.859C424 435.744 424 435.629 424 435.514C424 435.398 424 435.286 424 435.171C424 435.056 424 434.944 424 434.832C424 434.717 424 434.605 424 434.493C424 434.381 424 434.269 424 434.157C424 434.045 424 433.933 424 433.824C424 433.712 424 433.6 424 433.491C424 433.382 424 433.27 424 433.162C424 433.053 424 432.944 424 432.835C424 432.726 424 432.618 424 432.509C424 432.4 424 432.294 424 432.186C424 432.08 424 431.971 424 431.866C424 431.76 424 431.654 424 431.546C424 431.44 424 431.334 424 431.232C424 431.126 424 431.021 424 430.915C424 430.813 424 430.707 424 430.605C424 430.499 424 430.397 424 430.294C424 430.192 424 430.086 424 429.987C424 429.885 424 429.782 424 429.68C424 429.578 424 429.475 424 429.376C424 429.274 424 429.174 424 429.075C424 428.973 424 428.874 424 428.774C424 428.675 424 428.576 424 428.477C424 428.378 424 428.278 424 428.182C424 428.083 424 427.984 424 427.888C424 427.789 424 427.693 424 427.597C424 427.498 424 427.402 424 427.306C424 427.21 424 427.114 424 427.018C424 426.925 424 426.829 424 426.733C424 426.64 424 426.544 424 426.451C424 426.355 424 426.262 424 426.17C424 426.077 424 425.981 424 425.888C424 425.795 424 425.706 424 425.613C424 425.52 424 425.427 424 425.338C424 425.245 424 425.155 424 425.062C424 424.973 424 424.883 424 424.79C424 424.701 424 424.611 424 424.522C424 424.432 424 424.342 424 424.256C424 424.166 424 424.077 424 423.99C424 423.901 424 423.814 424 423.725C424 423.638 424 423.552 424 423.462C424 423.376 424 423.29 424 423.203C424 423.117 424 423.034 424 422.947C424 422.861 424 422.774 424 422.691C424 422.605 424 422.522 424 422.435C424 422.352 424 422.269 424 422.186C424 422.099 424 422.016 424 421.933C424 421.85 424 421.77 424 421.686C424 421.603 424 421.52 424 421.44C424 421.357 424 421.277 424 421.194C424 421.114 424 421.034 424 420.954C424 420.87 424 420.79 424 420.71C424 420.63 424 420.55 424 420.474C424 420.394 424 420.314 424 420.237C424 420.157 424 420.077 424 420C424 419.923 424 419.843 424 419.766C424 419.69 424 419.613 424 419.536C424 419.459 424 419.382 424 419.306C424 419.229 424 419.152 424 419.078C424 419.002 424 418.925 424 418.851C424 418.774 424 418.701 424 418.627C424 418.55 424 418.477 424 418.403C424 418.33 424 418.256 424 418.182C424 418.109 424 418.035 424 417.965C424 417.891 424 417.818 424 417.747C424 417.674 424 417.603 424 417.53C424 417.459 424 417.389 424 417.318C424 417.245 424 417.174 424 417.104C424 417.034 424 416.963 424 416.896C424 416.826 424 416.755 424 416.685C424 416.618 424 416.547 424 416.48C424 416.41 424 416.342 424 416.275C424 416.205 424 416.138 424 416.07C424 416.003 424 415.936 424 415.869C424 415.802 424 415.734 424 415.67C424 415.603 424 415.536 424 415.472C424 415.405 424 415.341 424 415.274C424 415.21 424 415.142 424 415.078C424 415.014 424 414.95 424 414.886C424 414.822 424 414.758 424 414.694C424 414.63 424 414.566 424 414.506C424 414.442 424 414.378 424 414.317C424 414.253 424 414.192 424 414.128C424 414.067 424 414.006 424 413.946C424 413.882 424 413.821 424 413.76C424 413.699 424 413.638 424 413.578C424 413.517 424 413.459 424 413.398C424 413.338 424 413.28 424 413.219C424 413.162 424 413.101 424 413.043C424 412.982 424 412.925 424 412.867C424 412.81 424 412.752 424 412.694C424 412.637 424 412.579 424 412.522C424 412.464 424 412.406 424 412.349C424 412.294 424 412.237 424 412.182C424 412.125 424 412.07 424 412.013C424 411.958 424 411.904 424 411.846C424 411.792 424 411.738 424 411.683C424 411.629 424 411.574 424 411.52C424 411.466 424 411.411 424 411.36C424 411.306 424 411.251 424 411.2C424 411.146 424 411.091 424 411.04C424 410.989 424 410.934 424 410.883C424 410.832 424 410.778 424 410.726C424 410.675 424 410.624 424 410.573C424 410.522 424 410.47 424 410.422C424 410.371 424 410.32 424 410.269C424 410.221 424 410.17 424 410.122C424 410.07 424 410.022 424 409.971C424 409.923 424 409.875 424 409.827C424 409.776 424 409.728 424 409.68C424 409.632 424 409.584 424 409.536C424 409.488 424 409.443 424 409.395C424 409.347 424 409.299 424 409.254C424 409.206 424 409.162 424 409.114C424 409.069 424 409.021 424 408.976C424 408.931 424 408.883 424 408.838C424 408.794 424 408.749 424 408.704C424 408.659 424 408.614 424 408.57C424 408.525 424 408.48 424 408.438C424 408.394 424 408.349 424 408.307C424 408.262 424 408.221 424 408.176C424 408.134 424 408.09 424 408.048C424 408.006 424 407.962 424 407.92C424 407.878 424 407.837 424 407.795C424 407.754 424 407.712 424 407.67C424 407.629 424 407.587 424 407.549C424 407.507 424 407.466 424 407.427C424 407.386 424 407.347 424 407.306C424 407.267 424 407.226 424 407.187C424 407.146 424 407.107 424 407.069C424 407.03 424 406.992 424 406.954C424 406.915 424 406.877 424 406.838C424 406.8 424 406.762 424 406.723C424 406.685 424 406.646 424 406.611C424 406.573 424 406.534 424 406.499C424 406.461 424 406.426 424 406.39C424 406.352 424 406.317 424 406.278C424 406.243 424 406.208 424 406.173C424 406.138 424 406.102 424 406.067C424 406.032 424 405.997 424 405.962C424 405.926 424 405.891 424 405.856C424 405.821 424 405.789 424 405.754C424 405.718 424 405.686 424 405.651C424 405.619 424 405.584 424 405.552C424 405.52 424 405.485 424 405.453C424 405.421 424 405.389 424 405.354C424 405.322 424 405.29 424 405.258C424 405.226 424 405.194 424 405.162C424 405.13 424 405.101 424 405.069C424 405.037 424 405.005 424 404.976C424 404.944 424 404.912 424 404.883C424 404.851 424 404.822 424 404.79C424 404.762 424 404.733 424 404.701C424 404.672 424 404.643 424 404.614C424 404.582 424 404.554 424 404.525C424 404.496 424 404.467 424 404.438C424 404.41 424 404.381 424 404.355C424 404.326 424 404.298 424 404.269C424 404.243 424 404.214 424 404.186C424 404.16 424 404.131 424 404.106C424 404.077 424 404.051 424 404.022C424 403.997 424 403.971 424 403.942C424 403.917 424 403.891 424 403.866C424 403.84 424 403.811 424 403.786C424 403.76 424 403.734 424 403.709C424 403.683 424 403.661 424 403.635C424 403.61 424 403.584 424 403.558C424 403.536 424 403.51 424 403.485C424 403.462 424 403.437 424 403.414C424 403.389 424 403.366 424 403.341C424 403.318 424 403.296 424 403.27C424 403.248 424 403.226 424 403.2C424 403.178 424 403.155 424 403.133C424 403.11 424 403.088 424 403.066C424 403.043 424 403.021 424 402.998C424 402.976 424 402.954 424 402.934C424 402.912 424 402.89 424 402.867C424 402.848 424 402.826 424 402.803C424 402.784 424 402.762 424 402.742C424 402.72 424 402.701 424 402.678C424 402.659 424 402.64 424 402.618C424 402.598 424 402.579 424 402.56C424 402.541 424 402.518 424 402.499C424 402.48 424 402.461 424 402.442C424 402.422 424 402.403 424 402.384C424 402.365 424 402.346 424 402.33C424 402.31 424 402.291 424 402.272C424 402.256 424 402.237 424 402.218C424 402.202 424 402.182 424 402.163C424 402.147 424 402.128 424 402.112C424 402.096 424 402.077 424 402.061C424 402.042 424 402.026 424 402.01C424 401.99 424 401.974 424 401.958C424 401.942 424 401.926 424 401.91C424 401.894 424 401.875 424 401.859C424 401.843 424 401.827 424 401.814C424 401.798 424 401.782 424 401.766C424 401.75 424 401.734 424 401.722C424 401.706 424 401.69 424 401.674C424 401.661 424 401.645 424 401.629C424 401.616 424 401.6 424 401.587C424 401.571 424 401.558 424 401.542C424 401.53 424 401.517 424 401.501C424 401.488 424 401.475 424 401.459C424 401.446 424 401.434 424 401.421C424 401.408 424 401.392 424 401.379C424 401.366 424 401.354 424 401.341C424 401.328 424 401.315 424 401.302C424 401.29 424 401.277 424 401.264C424 401.251 424 401.242 424 401.229C424 401.216 424 401.203 424 401.194C424 401.181 424 401.168 424 401.155C424 401.146 424 401.133 424 401.123C424 401.11 424 401.101 424 401.088C424 401.075 424 401.066 424 401.056C424 401.043 424 401.034 424 401.021C424 401.011 424 401.002 424 400.989C424 400.998 424 400.979 424 400.989C424 400.976 424 400.938 424 400.928C424 400.938 424 400.918 424 400.928C424 400.918 424 400.88 424 400.87C424 400.88 424 400.861 424 400.87C424 400.861 424 400.822 424 400.813C424 400.822 424 400.803 424 400.813C424 400.803 424 400.768 424 400.758C424 400.765 424 400.749 424 400.758C424 400.749 424 400.714 424 400.707C424 400.717 424 400.698 424 400.707C424 400.698 424 400.666 424 400.656C424 400.662 424 400.65 424 400.656C424 400.65 424 400.618 424 400.611C424 400.618 424 400.602 424 400.611C424 400.602 424 400.573 424 400.566C424 400.573 424 400.56 424 400.566C424 400.56 424 400.531 424 400.525C424 400.531 424 400.515 424 400.525C424 400.518 424 400.49 424 400.483C424 400.49 424 400.477 424 400.483C424 400.477 424 400.451 424 400.445C424 400.451 424 400.438 424 400.445C424 400.438 424 400.416 424 400.41C424 400.416 424 400.403 424 400.41C424 400.406 424 400.381 424 400.374C424 400.368 424 400.333 424 400.326C424 400.323 424 400.288 424 400.285C424 400.282 424 400.25 424 400.246C424 400.243 424 400.214 424 400.208C424 400.205 424 400.182 424 400.176C424 400.173 424 400.144 424 400.141C424 400.144 424 400.138 424 400.141C424 400.138 424 400.112 424 400.109C424 400.106 424 400.074 424 400.07C424 400.07 424 400.042 424 400.038C424 400.035 424 400 424 400H400ZM424 400V240H376V400H424Z" fill="#42814A"/>
</svg>
