<svg width="800" height="800" viewBox="0 0 800 800" fill="none" xmlns="http://www.w3.org/2000/svg">
<path fill-rule="evenodd" clip-rule="evenodd" d="M466.667 66.6667C466.667 48.2574 451.743 33.3334 433.333 33.3334C414.923 33.3334 400 48.2574 400 66.6667V286.193L323.57 209.763C310.553 196.746 289.447 196.746 276.43 209.763C263.412 222.781 263.412 243.886 276.43 256.904L409.763 390.237C422.78 403.253 443.887 403.253 456.903 390.237L590.237 256.904C603.253 243.886 603.253 222.781 590.237 209.763C577.22 196.746 556.113 196.746 543.097 209.763L466.667 286.193V66.6667ZM33.3333 100C33.3333 81.5907 48.2573 66.6667 66.6667 66.6667H82.4137C127.509 66.6667 167.025 96.849 178.89 140.355L192.765 191.229L258.793 433.333H607.867L673.84 191.236C678.68 173.474 697.003 162.999 714.763 167.839C732.527 172.679 743 191.002 738.16 208.764L672.19 450.86C664.283 479.873 637.937 500 607.867 500H266.667V533.333C266.667 551.743 281.591 566.667 300 566.667H550H600C618.41 566.667 633.333 581.59 633.333 600C633.333 607.067 631.133 613.62 627.383 619.013C631.22 628.593 633.333 639.05 633.333 650C633.333 696.023 596.023 733.333 550 733.333C503.977 733.333 466.667 696.023 466.667 650C466.667 644.293 467.24 638.72 468.333 633.333H365C366.093 638.72 366.667 644.293 366.667 650C366.667 696.023 329.357 733.333 283.333 733.333C237.31 733.333 200 696.023 200 650C200 628.767 207.941 609.387 221.016 594.673C207.844 577.737 200 556.45 200 533.333V471.13L128.447 208.771L114.572 157.896C110.617 143.394 97.4453 133.333 82.4137 133.333H66.6667C48.2573 133.333 33.3333 118.409 33.3333 100ZM533.333 650C533.333 640.797 540.797 633.333 550 633.333C559.203 633.333 566.667 640.797 566.667 650C566.667 659.203 559.203 666.667 550 666.667C540.797 666.667 533.333 659.203 533.333 650ZM266.667 650C266.667 640.797 274.129 633.333 283.333 633.333C292.538 633.333 300 640.797 300 650C300 659.203 292.538 666.667 283.333 666.667C274.129 666.667 266.667 659.203 266.667 650Z" fill="white"/>
</svg>
