<svg width="800" height="800" viewBox="0 0 800 800" fill="none" xmlns="http://www.w3.org/2000/svg">
<g clip-path="url(#clip0_16_4)">
<path d="M745.275 498.159C726.318 479.202 703.813 465.087 679.259 456.418L691.279 421.313H716.582V276.187H627.746L421.113 85.2573C423.282 78.7984 424.475 71.896 424.475 64.715C424.475 29.0313 395.444 0 359.758 0C324.074 0 295.044 29.0313 295.044 64.715C295.044 71.8943 296.236 78.7968 298.404 85.2564L91.77 276.187H2.93774V421.315H28.2396L114.511 673.275H450.604C458.836 701.301 473.991 726.981 495.222 748.213C528.618 781.61 573.02 800.001 620.248 800.001C667.478 800.001 711.879 781.61 745.275 748.213C778.671 714.817 797.063 670.416 797.063 623.188C797.062 575.957 778.671 531.554 745.275 498.159ZM507.141 673.275C502.174 662.102 498.818 650.062 497.363 637.452C496.823 632.769 496.535 628.01 496.535 623.185C496.535 622.179 496.549 621.175 496.574 620.172C497.22 593.291 506.487 568.51 521.705 548.483C522.201 547.83 522.7 547.181 523.208 546.539C543.537 520.856 573.825 503.402 608.187 500.06C612.155 499.676 616.179 499.471 620.248 499.471C623.739 499.471 627.195 499.625 630.614 499.909C641.549 500.819 652.082 503.159 662.029 506.739C709.746 523.912 743.961 569.624 743.961 623.184C743.961 691.398 688.464 746.895 620.248 746.895C569.852 746.898 526.406 716.604 507.141 673.275ZM333.207 620.173H258.252L250.982 546.54H333.207V620.173ZM245.738 493.438L238.684 422.003H333.207V493.438H245.738ZM386.309 422.003H480.834L473.78 493.437H386.309L386.309 422.003ZM620.248 446.371C587.7 446.371 556.496 455.108 529.311 471.47L534.195 422.003H634.914L626.527 446.494C624.441 446.42 622.349 446.371 620.248 446.371ZM371.372 64.715C371.372 68.0816 369.924 71.1084 367.628 73.2317C365.556 75.1475 362.797 76.3288 359.758 76.3288C356.721 76.3288 353.961 75.1475 351.89 73.2317C349.594 71.1084 348.145 68.0808 348.145 64.715C348.145 61.3491 349.594 58.3223 351.89 56.199C353.961 54.2833 356.721 53.102 359.758 53.102C362.797 53.102 365.556 54.2833 367.628 56.199C369.924 58.3223 371.372 61.3491 371.372 64.715ZM334.434 124.265C342.216 127.588 350.776 129.431 359.758 129.431C368.742 129.431 377.302 127.588 385.083 124.265L549.501 276.187H170.018L334.434 124.265ZM56.0397 329.289H663.479V368.213H56.0397V329.289ZM185.323 422.003L192.378 493.437H109.063L84.6037 422.003H185.323ZM152.458 620.173L127.246 546.54H197.622L204.893 620.173H152.458ZM386.309 546.54H460.819C449.871 569.269 443.901 594.267 443.471 620.173H386.309L386.309 546.54Z" fill="#AF4D4D"/>
<path d="M575.12 596.634H542.366V620.173V649.736H613.067H698.132V596.634H631.249H575.12Z" fill="#AF4D4D"/>
</g>
<defs>
<clipPath id="clip0_16_4">
<rect width="800" height="800" fill="white"/>
</clipPath>
</defs>
</svg>
